<?xml version="1.0" encoding="UTF-8"?>
<svg xmlns="http://www.w3.org/2000/svg" id="Layer_2" viewBox="0 0 192.42 110">
  <defs>
    <style>.cls-1{fill:none;}.cls-2{fill:#fff;}.cls-3{fill:#1a1a1a;}.cls-4{fill:#6fc7ba;}</style>
  </defs>
  <g id="Layer_1-2">
    <g>
      <g>
        <rect class="cls-1" x="-1.49" y="1.49" width="195.4" height="192.42" transform="translate(193.91 1.49) rotate(90)"/>
        <g>
          <path class="cls-4" d="m134.43,66.58c0,5.11-2.11,10.05-3.96,14.5s-4.71,8.85-8.18,12.32c-3.47,3.47-7.64,6.46-12.24,8.37-4.44,1.84-9.46,3.36-14.57,3.36s-10.24-1.26-14.68-3.1c-4.61-1.91-7.76-6.06-11.23-9.54-3.47-3.47-7.36-6.73-9.27-11.34s-2.22-9.46-2.22-14.57-.6-10.53,1.24-14.98c1.91-4.61,5.94-8.29,9.42-11.76,3.47-3.47,7.32-7.1,11.93-9.01,4.44-1.84,9.7-2.03,14.81-2.03s10.06.93,14.5,2.77c4.61,1.91,9.05,4.51,12.52,7.99,3.47,3.47,6.48,7.75,8.39,12.35,1.84,4.44,3.54,9.56,3.54,14.67Z"/>
          <polygon class="cls-2" points="106.18 44.79 98.08 45.99 100.4 61.66 83.44 48.61 78.45 55.12 93.33 66.58 78.45 78.03 83.44 84.55 100.4 71.49 98.08 87.16 106.18 88.36 109.4 66.58 106.18 44.79"/>
        </g>
      </g>
      <rect class="cls-1" x="-1.49" y="1.49" width="195.4" height="192.42" transform="translate(193.91 1.49) rotate(90)"/>
    </g>
  </g>
</svg>
