<svg clip-rule="evenodd" fill-rule="evenodd" stroke-linejoin="round" stroke-miterlimit="1.414" viewBox="0,0,1200,800" xmlns="http://www.w3.org/2000/svg" xmlns:xlink="http://www.w3.org/1999/xlink">
 <linearGradient id="prefix___Linear1" gradientTransform="scale(1 -1)" gradientUnits="userSpaceOnUse" x1="0" x2="1" y1="0" y2="0">
  <stop offset="0" stop-color="#f74c00"/>
  <stop offset=".33" stop-color="#f74c00"/>
  <stop offset="1" stop-color="#f49600"/>
 </linearGradient>
 <linearGradient id="prefix___Linear2" gradientTransform="scale(1 -1)" gradientUnits="userSpaceOnUse" x1="0" x2="1" y1="0" y2="0">
  <stop offset="0" stop-color="#cc3a00"/>
  <stop offset=".15" stop-color="#cc3a00"/>
  <stop offset=".74" stop-color="#f74c00"/>
  <stop offset="1" stop-color="#f74c00"/>
 </linearGradient>
 <path d="m597.344 357.461c-121.238 0-231.39 14.576-312.939 38.329v202.901c81.549 23.754 191.701 38.329 312.939 38.329 138.76 0 262.987-19.092 346.431-49.186v-181.184c-83.444-30.095-207.671-49.189-346.431-49.189m471.406 164.861-14.211-29.441c.073-1.118.131-2.237.131-3.36 0-33.375-34.706-64.135-93.097-88.762v177.526c27.245-11.492 49.348-24.317 65.156-38.125-4.652 18.707-20.564 56.553-33.25 83.168-20.85 38.066-28.4 71.203-27.432 72.844.617 1.033 7.73-9.94 18.219-27.721 24.41-34.781 70.664-101.182 79.909-118.096 10.472-19.174 4.575-28.033 4.575-28.033m-919.686-30.855c0 6.428 1.293 12.76 3.788 18.969l-8.511 15.15s-6.818 8.846 5.188 27.508c10.59 16.455 63.635 80.867 91.632 114.598 12.026 17.293 20.179 27.945 20.893 26.916 1.124-1.633-7.476-34.1-31.359-71.141-11.144-19.895-24.454-46.252-32.442-65.721 22.303 14.116 51.483 26.92 86.152 37.94v-208.435c-83.544 26.548-135.341 63.433-135.341 104.216" fill="#a52b00" fill-rule="nonzero"/>
 <path d="m.991-.034-.058.042v.018l.057.043a.018.018 0 0 1 .008.018.022.022 0 0 1 -.012.016l-.066.03a.085.085 0 0 1 -.004.017l.048.053c.004.005.006.013.004.019a.023.023 0 0 1 -.015.014l-.071.018-.007.016.035.06a.018.018 0 0 1 0 .02c-.003.006-.01.01-.017.011l-.073.004-.01.014.022.066c.003.007.001.014-.004.02a.022.022 0 0 1 -.019.007l-.072-.01a.154.154 0 0 1 -.013.012l.009.07a.018.018 0 0 1 -.008.018c-.006.004-.014.006-.021.003l-.068-.023-.015.01-.006.069a.02.02 0 0 1 -.011.017.026.026 0 0 1 -.021 0l-.062-.036-.003.001-.112.126s-.012.018-.047-.004c-.03-.02-.153-.126-.218-.182a.267.267 0 0 1 -.051-.041c.003-.003.059.007.127.052.061.034.154.077.163.065 0 0 .016-.015.026-.044.001.001.001.001 0 0 0 0-.315-.551-.101-1.106.006-.062-.03-.096-.03-.096-.009-.012-.097.029-.155.061-.065.043-.118.053-.12.05a.245.245 0 0 1 .049-.039c.061-.053.178-.152.207-.171.033-.022.045-.004.045-.004l.101.115.013.002.055-.045c.005-.005.013-.006.02-.004a.02.02 0 0 1 .014.014l.018.068.016.006.064-.034a.02.02 0 0 1 .021 0c.006.003.01.009.01.016l.004.07.015.01.069-.022a.023.023 0 0 1 .02.003.02.02 0 0 1 .008.019l-.011.069a.154.154 0 0 0 .013.012l.072-.008a.023.023 0 0 1 .019.007.018.018 0 0 1 .003.02l-.024.065.01.015.072.005a.02.02 0 0 1 .017.011.018.018 0 0 1 0 .02l-.037.06.006.016.07.018a.021.021 0 0 1 .015.014.021.021 0 0 1 -.005.02l-.049.052.004.017.064.031a.02.02 0 0 1 .012.016c.001.007-.003.014-.009.018z" fill="url(#prefix___Linear1)" fill-rule="nonzero" transform="matrix(-65.8095844 -752.2069915 -752.2069915 65.8095844 621.87 796.78)"/>
 <path d="m450.328 650.959c-1.664-1.42-2.536-2.262-2.536-2.262l142.542-11.677c-116.273-153.391-209.424-31.198-219.339-17.536v31.475zm296.792-1.652c1.663-1.42 2.536-2.264 2.536-2.264l-136.984-10.023c116.328-159.687 203.869-32.852 213.783-19.19v31.477z" fill-rule="nonzero"/>
 <path d="m1-.586s-.232.058-.476.421l-.024.101s.6.329-.076.795c0 0 .084-.145-.019-.534 0 0-.274.179-.265.539 0 0-.415-.345.184-.871 0 0 .215-.556.676-.601z" fill="url(#prefix___Linear2)" fill-rule="nonzero" transform="matrix(0 -267.211 -267.211 0 809.65 764.22)"/>
 <path d="m677.392 417.547s43.486-47.615 86.974 0c0 0 34.17 63.492 0 95.234 0 0-55.912 44.444-86.974 0 0 0-37.275-34.921 0-95.234" fill-rule="nonzero"/>
 <path d="m727.738 435.211c0 18.541-10.93 33.572-24.408 33.572-13.477 0-24.406-15.031-24.406-33.572s10.929-33.574 24.406-33.574c13.478 0 24.408 15.033 24.408 33.574" fill="#fff" fill-rule="nonzero"/>
 <path d="m483.3 404.545s74.596-33.028 94.956 40.691c0 0 21.327 85.926-61.259 90.776 0 0-105.31-20.283-33.697-131.467" fill-rule="nonzero"/>
 <path d="m520.766 436.428c0 19.119-11.27 34.627-25.173 34.627-13.898 0-25.171-15.508-25.171-34.627 0-19.124 11.273-34.627 25.171-34.627 13.903 0 25.173 15.503 25.173 34.627" fill="#fff" fill-rule="nonzero"/>
 <path d="m.367.129c-.731-.57-.144-.84-.144-.84.036.32.249.547.249.547.049-.384.053-.606.053-.606.678.514.064.931.064.931.038.104.183.211.317.29l.094.319c-.624-.367-.633-.641-.633-.641z" fill="url(#prefix___Linear2)" fill-rule="nonzero" transform="matrix(0 -239.021 -239.021 0 402.27 775.15)"/>
</svg>
