<?xml version="1.0" encoding="utf-8"?>
<svg version="1.1" id="Layer_2_00000000905532406708545630000017206184856468260016_"
	 xmlns="http://www.w3.org/2000/svg" xmlns:xlink="http://www.w3.org/1999/xlink" x="0px" y="0px" viewBox="0 0 197.1 196.9"
	 style="enable-background:new 0 0 197.1 196.9;" xml:space="preserve">
<style type="text/css">
	.st0{fill:#FFFFFF;}
	.st1{fill:#6FC7BA;}
	.st2{fill:none;}
</style>
<g id="Layer_1-2">
	<g>
		<g>
			<circle class="st0" cx="98.5" cy="98.4" r="70.3"/>
			<path class="st1" d="M185.7,60.6c-4.8-11.6-12.4-22.3-21.1-31c-8.7-8.7-19.9-15.3-31.5-20c-11.1-4.6-23.6-7-36.4-7
				S70.6,3,59.5,7.7c-11.6,4.8-21.3,13.9-30,22.6c-8.7,8.7-18.9,18-23.7,29.6C1.2,71,2.7,84.6,2.7,97.5s0.9,25.4,5.6,36.6
				c4.8,11.6,14.6,19.8,23.3,28.5c8.7,8.7,16.6,19.1,28.2,23.9c11.2,4.6,24,7.8,36.9,7.8s25.5-3.8,36.6-8.5
				c11.6-4.8,22-12.3,30.8-21c8.7-8.7,15.7-19.4,20.6-31c4.6-11.1,9.9-23.6,9.9-36.4S190.3,71.8,185.7,60.6L185.7,60.6z
				 M123.6,152.2l-20.3-3l5.8-39.4l-42.6,32.8l-12.5-16.4l37.4-28.8L53.9,68.7l12.5-16.4L109,85.1l-5.8-39.4l20.3-3l8.1,54.8
				L123.6,152.2L123.6,152.2z"/>
		</g>
		<rect x="-70.2" y="-70.1" class="st2" width="337.4" height="337.1"/>
	</g>
</g>
</svg>
